<?xml version="1.0" encoding="UTF-8"?>
<!DOCTYPE svg PUBLIC "-//W3C//DTD SVG 1.1//EN" "http://www.w3.org/Graphics/SVG/1.1/DTD/svg11.dtd">
<!-- Creator: CorelDRAW 2020 (64-Bit) -->
<svg xmlns="http://www.w3.org/2000/svg" xml:space="preserve" width="34mm" height="39mm" version="1.1" style="shape-rendering:geometricPrecision; text-rendering:geometricPrecision; image-rendering:optimizeQuality; fill-rule:evenodd; clip-rule:evenodd"
viewBox="0 0 3400 3900"
 xmlns:xlink="http://www.w3.org/1999/xlink"
 xmlns:xodm="http://www.corel.com/coreldraw/odm/2003">
 <defs>
  <style type="text/css">
   <![CDATA[
    .fil0 {fill:#202327}
    .fil1 {fill:#8A0001}
   ]]>
  </style>
 </defs>
 <g id="Capa_x0020_1">
  <metadata id="CorelCorpID_0Corel-Layer"/>
  <path class="fil0" d="M1698.76 3084.27c-319.67,-220.32 -605.23,-412.06 -782.67,-772.13 -118.63,-240.74 -134.68,-371.47 -131.54,-643.71 2.73,-235.79 42.67,-465.04 89.58,-694.65 168.32,-102.84 618.98,-178.47 821.52,-178.6 186.64,-0.12 687.84,75.21 832.24,179.17 103.18,378.4 155.28,989.19 -39.94,1339.64 -95.24,170.96 -208.04,318.52 -342.17,440.18 -121.08,109.81 -294.32,250.85 -447.02,330.1zm206.58 -3016.29l-399.39 0c-36.99,16.91 -254.4,34.19 -320.26,45.97 -159.22,28.49 -800.96,188.97 -845.46,258.37 -83.82,332.05 -146.18,770.93 -153.22,1114.5 -7.99,389.58 21.35,725.4 214.45,1067.08 358.61,634.52 702.35,864.27 1295.96,1258.68 211.08,-86 727.53,-503.94 894.72,-691.66 200.7,-225.34 245.33,-280.32 405.21,-559.48 343.5,-599.76 226.55,-1541.52 64.83,-2190.12 -44.42,-67.45 -680.3,-226.62 -834.97,-255.75 -74.69,-14.07 -273.59,-26.09 -321.87,-47.59z"/>
  <path class="fil1" d="M1708.56 2747.85c266.49,-129.9 582.97,-421.79 654.58,-719.09 111.06,-461.07 -420.47,-717.21 -659.1,-350.74 -71.82,-69.98 -63.11,-111.68 -186.2,-150.07 -410.36,-127.99 -761.2,400.2 -208.18,923.95 79.75,75.53 293.17,261.24 398.9,295.95z"/>
 </g>
</svg>
